<?xml version="1.0" standalone="no"?>
<!DOCTYPE svg PUBLIC "-//W3C//DTD SVG 20010904//EN"
 "http://www.w3.org/TR/2001/REC-SVG-20010904/DTD/svg10.dtd">
<svg version="1.0" xmlns="http://www.w3.org/2000/svg"
 width="768.000000pt" height="768.000000pt" viewBox="0 0 768.000000 768.000000"
 preserveAspectRatio="xMidYMid meet">

<g transform="translate(0.000000,768.000000) scale(0.100000,-0.100000)"
fill="#000000" stroke="none">
<path d="M3000 7542 c-64 -31 -72 -64 -65 -245 l6 -157 -188 2 c-168 2 -196 0
-266 -20 -261 -74 -472 -259 -567 -495 -69 -172 -65 -116 -65 -1027 l0 -825
28 -88 c54 -174 141 -311 248 -391 119 -90 210 -127 331 -135 l87 -6 -119
-215 c-66 -118 -133 -237 -149 -265 -17 -27 -42 -76 -55 -107 l-26 -58 -64 0
c-36 0 -68 -4 -71 -10 -3 -6 5 -10 19 -10 64 0 31 -134 -80 -320 -40 -69 -76
-140 -80 -158 -6 -28 -3 -33 22 -42 15 -6 93 -14 174 -17 l145 -6 75 154 74
154 160 -7 c89 -4 587 -7 1109 -6 521 1 949 -1 951 -3 2 -2 35 -65 73 -139
l68 -135 163 2 c89 1 166 5 172 8 13 8 -9 64 -84 206 -36 69 -66 131 -66 137
0 8 18 12 49 12 32 0 55 6 66 16 25 25 2 42 -71 50 -67 7 -85 17 -122 72 -13
20 -13 25 -1 33 11 7 9 9 -8 9 -17 0 -34 24 -86 124 -36 68 -85 154 -109 192
-24 38 -74 126 -111 196 l-66 126 72 7 c126 13 232 57 341 145 106 86 196 227
244 380 19 62 20 98 23 880 l4 815 -28 110 c-71 274 -220 476 -423 572 -150
71 -220 86 -435 91 l-186 4 5 157 c5 176 1 191 -63 231 -31 19 -48 20 -526 20
-450 0 -497 -2 -529 -18z m619 -556 c76 -39 130 -139 117 -218 -13 -78 -76
-164 -139 -187 -72 -27 -173 -4 -224 51 -33 35 -63 108 -63 155 0 56 40 144
78 172 80 57 154 65 231 27z m1051 -616 c52 -29 105 -95 120 -148 5 -20 10
-122 10 -226 0 -172 -2 -194 -21 -233 -28 -59 -98 -118 -156 -133 -30 -7 -176
-13 -391 -16 l-344 -5 -54 26 c-107 52 -122 98 -126 382 l-3 218 27 47 c22 36
41 53 85 75 56 27 65 28 253 34 107 3 276 6 375 5 172 -1 182 -2 225 -26z
m-1485 0 c51 -25 86 -61 119 -124 25 -48 26 -53 26 -245 0 -185 -1 -199 -24
-246 -26 -56 -76 -107 -121 -126 -43 -18 -744 -26 -785 -9 -40 17 -118 102
-140 153 -25 60 -38 442 -16 485 18 34 113 110 153 122 15 4 190 9 387 9 340
1 362 0 401 -19z m1371 -1191 c118 -56 174 -149 174 -289 0 -110 -61 -203
-172 -262 -34 -18 -59 -23 -123 -23 -72 0 -86 3 -143 34 -73 40 -105 74 -140
150 -28 62 -33 169 -10 232 19 52 99 136 152 160 102 45 166 44 262 -2z
m-1845 1 c63 -32 126 -96 156 -158 75 -153 -2 -348 -158 -401 -122 -41 -224
-22 -313 60 -57 52 -77 91 -97 185 -19 94 -1 158 67 238 53 62 85 82 159 100
41 10 145 -4 186 -24z m833 -1007 l549 -3 23 -41 c13 -22 33 -54 45 -70 12
-17 18 -33 14 -37 -11 -11 -1286 -15 -1297 -4 -7 7 6 39 34 91 37 70 46 81 63
74 11 -4 267 -8 569 -10z m807 -433 c7 -19 31 -74 55 -122 24 -48 44 -90 44
-93 0 -9 -1849 -5 -1854 4 -3 4 18 48 46 97 28 49 57 103 64 119 l12 30 811 0
811 0 11 -35z"/>
<path d="M5573 6433 c-12 -2 -36 -20 -53 -39 -45 -52 -43 -104 9 -155 l39 -39
286 0 c311 0 325 2 361 56 38 58 15 128 -55 165 -31 17 -59 19 -300 18 -146
-1 -275 -4 -287 -6z"/>
<path d="M5538 5947 c-35 -28 -61 -91 -53 -127 3 -15 19 -40 36 -56 l30 -28
325 -4 325 -4 26 23 c33 31 54 79 46 110 -10 43 -51 88 -91 99 -21 6 -158 10
-327 10 -286 0 -290 0 -317 -23z"/>
<path d="M5630 5529 c-65 -27 -100 -94 -80 -154 20 -60 32 -63 259 -61 200 1
203 2 222 25 42 51 37 102 -16 159 l-33 37 -164 2 c-94 1 -173 -2 -188 -8z"/>
<path d="M2654 2487 c-3 -11 -5 -375 -3 -811 3 -782 3 -792 -17 -837 -71 -155
-268 -168 -443 -29 -42 33 -58 41 -70 33 -9 -5 -53 -57 -99 -114 -46 -57 -101
-125 -123 -151 -21 -26 -39 -51 -39 -56 0 -19 84 -104 139 -141 82 -56 149
-87 248 -118 75 -23 107 -26 218 -27 118 -1 138 2 210 27 101 36 228 120 299
198 69 76 130 199 151 304 15 72 16 162 10 904 -3 454 -8 828 -11 833 -3 4
-108 7 -235 6 -215 -2 -229 -4 -235 -21z"/>
<path d="M4145 2494 c-213 -48 -387 -158 -485 -309 -126 -194 -137 -471 -27
-680 38 -72 132 -167 208 -213 61 -35 225 -96 359 -131 177 -47 293 -104 338
-168 56 -78 53 -174 -6 -233 -139 -138 -513 -96 -704 79 -31 28 -64 51 -75 51
-13 0 -61 -52 -144 -156 -170 -213 -156 -190 -128 -220 62 -67 272 -193 372
-224 171 -53 238 -64 392 -63 159 0 234 12 377 59 188 62 371 258 425 454 27
98 24 285 -5 365 -47 126 -172 270 -295 337 -74 40 -304 128 -467 178 -130 40
-168 59 -208 104 -87 100 -23 258 122 301 63 19 185 19 255 0 30 -8 109 -46
176 -84 68 -39 132 -71 143 -71 14 0 33 19 59 57 21 32 72 94 114 138 42 45
84 93 94 108 17 27 17 28 -6 54 -40 44 -189 136 -293 181 -200 88 -431 122
-591 86z"/>
</g>
</svg>
